<?xml version="1.0" encoding="UTF-8" standalone="no"?>
<svg xmlns="http://www.w3.org/2000/svg"
     xmlns:xlink="http://www.w3.org/1999/xlink"
     width="1850pt" height="1000pt" viewBox="0 0 1850 1000">
<title>Geant4 output</title>
<desc>
Creator: GL2PS 1.4.2, (C) 1999-2020 C. Geuzaine
For: Geant4
CreationDate: Sat May 16 19:35:37 2026
</desc>
<defs>
</defs>
<polygon fill="#ffffff" points="0,0 1850,0 1850,1000 0,1000"/>
<g>
<polygon fill="#535760" fill-opacity="0.3" shape-rendering="crispEdges" points="1414.07,415.795 1414.07,593.643 1330.51,386.418"/>
<polygon fill="#535760" fill-opacity="0.3" shape-rendering="crispEdges" points="1414.07,593.643 1330.51,564.266 1330.51,386.418"/>
<polygon fill="#7b818c" fill-opacity="0.18" shape-rendering="crispEdges" points="1330.52,386.421 1330.52,564.268 1330.51,386.418"/>
<polygon fill="#7b818c" fill-opacity="0.18" shape-rendering="crispEdges" points="1330.52,564.268 1330.51,564.266 1330.51,386.418"/>
<polygon fill="#b8bdc5" fill-opacity="0.2" shape-rendering="crispEdges" points="1414.07,415.795 1414.07,415.825 1330.51,386.418"/>
<polygon fill="#b8bdc5" fill-opacity="0.2" shape-rendering="crispEdges" points="1414.07,415.825 1330.51,386.448 1330.51,386.418"/>
<polygon fill="#4a4f57" fill-opacity="0.2" shape-rendering="crispEdges" points="1414.07,593.613 1414.07,593.643 1330.51,564.236"/>
<polygon fill="#4a4f57" fill-opacity="0.2" shape-rendering="crispEdges" points="1414.07,593.643 1330.51,564.266 1330.51,564.236"/>
<polygon fill="#26282c" fill-opacity="0.3" shape-rendering="crispEdges" points="1414.07,593.643 1414.04,593.643 1330.51,564.266"/>
<polygon fill="#26282c" fill-opacity="0.3" shape-rendering="crispEdges" points="1414.04,593.643 1330.48,564.267 1330.51,564.266"/>
<polygon fill="#4b4e53" fill-opacity="0.1" shape-rendering="crispEdges" points="923.522,604.576 923.493,604.577 839.963,575.2"/>
<polygon fill="#4b4e53" fill-opacity="0.1" shape-rendering="crispEdges" points="923.493,604.577 839.934,575.2 839.963,575.2"/>
<polygon fill="#393c41" fill-opacity="0.18" shape-rendering="crispEdges" points="839.934,575.2 839.934,397.353 1330.51,564.266"/>
<polygon fill="#26282c" fill-opacity="0.3" shape-rendering="crispEdges" points="1330.48,564.267 1330.48,386.419 1330.51,564.266"/>
<polygon fill="#26282c" fill-opacity="0.3" shape-rendering="crispEdges" points="1330.48,386.419 1330.51,386.418 1330.51,564.266"/>
<polygon fill="#4b4e53" fill-opacity="0.1" shape-rendering="crispEdges" points="839.934,575.2 839.934,397.353 839.963,575.2"/>
<polygon fill="#4b4e53" fill-opacity="0.1" shape-rendering="crispEdges" points="839.934,397.353 839.963,397.352 839.963,575.2"/>
<polygon fill="#393c41" fill-opacity="0.18" shape-rendering="crispEdges" points="839.934,397.353 1330.51,386.418 1330.51,564.266"/>
<polygon fill="#55575b" fill-opacity="0.2" shape-rendering="crispEdges" points="839.934,397.382 839.934,397.353 1330.51,386.448"/>
<polygon fill="#55575b" fill-opacity="0.2" shape-rendering="crispEdges" points="839.934,397.353 1330.51,386.418 1330.51,386.448"/>
<polygon fill="#222428" fill-opacity="0.2" shape-rendering="crispEdges" points="839.934,575.2 839.934,575.171 1330.51,564.266"/>
<polygon fill="#222428" fill-opacity="0.2" shape-rendering="crispEdges" points="839.934,575.171 1330.51,564.236 1330.51,564.266"/>
<polygon fill="#222428" fill-opacity="0.2" shape-rendering="crispEdges" points="1414.07,593.643 923.493,604.577 1330.51,564.266"/>
<polygon fill="#222428" fill-opacity="0.2" shape-rendering="crispEdges" points="923.493,604.577 839.934,575.2 1330.51,564.266"/>
<polygon fill="#26282c" fill-opacity="0.3" shape-rendering="crispEdges" points="1348.8,570.706 1334.93,565.8 1330.48,564.267"/>
<polygon fill="#4a4f57" fill-opacity="0.2" shape-rendering="crispEdges" points="870.485,576.152 844.414,576.732 844.42,576.734"/>
<polygon fill="#26282c" fill-opacity="0.3" shape-rendering="crispEdges" points="1414.04,593.643 1414.04,593.614 1352.25,571.891"/>
<polygon fill="#26282c" fill-opacity="0.3" shape-rendering="crispEdges" points="1414.04,593.643 1352.25,571.891 1348.8,570.706"/>
<polygon fill="#26282c" fill-opacity="0.3" shape-rendering="crispEdges" points="1352.25,571.89 1334.93,565.8 1348.8,570.706"/>
<polygon fill="#4a4f57" fill-opacity="0.2" shape-rendering="crispEdges" points="870.485,576.152 844.42,576.734 1414.07,593.613"/>
<polygon fill="#4a4f57" fill-opacity="0.2" shape-rendering="crispEdges" points="844.42,576.734 923.522,604.547 1414.07,593.613"/>
<polygon fill="#4a4f57" fill-opacity="0.2" shape-rendering="crispEdges" points="1334.96,565.799 870.458,576.151 1414.07,593.613"/>
<polygon fill="#26282c" fill-opacity="0.3" shape-rendering="crispEdges" points="1414.04,593.614 1414.04,593.086 1352.25,571.891"/>
<polygon fill="#26282c" fill-opacity="0.3" shape-rendering="crispEdges" points="1352.25,571.89 1414.04,593.086 1334.93,565.8"/>
<polygon fill="#a2a9b4" fill-opacity="0.1" shape-rendering="crispEdges" points="923.522,604.019 923.522,604.576 923.261,603.929"/>
<polygon fill="#a2a9b4" fill-opacity="0.1" shape-rendering="crispEdges" points="844.409,576.733 858.304,581.648 839.963,575.2"/>
<polygon fill="#4a4f57" fill-opacity="0.2" shape-rendering="crispEdges" points="844.414,576.732 844.377,576.732 844.42,576.734"/>
<polygon fill="#a2a9b4" fill-opacity="0.1" shape-rendering="crispEdges" points="923.508,604.542 923.522,604.576 844.409,576.733"/>
<polygon fill="#a2a9b4" fill-opacity="0.1" shape-rendering="crispEdges" points="844.409,576.733 923.522,604.576 858.304,581.648"/>
<polygon fill="#4a4f57" fill-opacity="0.2" shape-rendering="crispEdges" points="844.42,576.734 844.377,576.732 923.493,604.547"/>
<polygon fill="#4a4f57" fill-opacity="0.2" shape-rendering="crispEdges" points="844.42,576.734 923.493,604.547 923.522,604.547"/>
<polygon fill="#a2a9b4" fill-opacity="0.1" shape-rendering="crispEdges" points="923.261,603.929 923.508,604.542 844.409,576.733"/>
<polygon fill="#4a4f57" fill-opacity="0.2" shape-rendering="crispEdges" points="923.493,604.577 1414.07,593.643 923.493,604.547"/>
<polygon fill="#4a4f57" fill-opacity="0.2" shape-rendering="crispEdges" points="1414.07,593.643 1414.07,593.613 923.493,604.547"/>
<polygon fill="#393c41" fill-opacity="0.18" shape-rendering="crispEdges" points="1330.52,564.268 839.942,575.203 1330.51,564.266"/>
<polygon fill="#393c41" fill-opacity="0.18" shape-rendering="crispEdges" points="839.942,575.203 839.934,575.2 1330.51,564.266"/>
<polygon fill="#7b818c" fill-opacity="0.18" shape-rendering="crispEdges" points="1330.52,564.268 1330.52,564.239 1330.49,564.239"/>
<polygon fill="#7b818c" fill-opacity="0.18" shape-rendering="crispEdges" points="1330.52,564.268 1330.49,564.239 1330.49,564.259"/>
<polygon fill="#7b818c" fill-opacity="0.18" shape-rendering="crispEdges" points="1330.52,564.239 1330.52,564.268 1330.52,564.239"/>
<polygon fill="#4a4f57" fill-opacity="0.2" shape-rendering="crispEdges" points="1330.48,564.237 1330.48,564.237 1330.51,564.236"/>
<polygon fill="#4a4f57" fill-opacity="0.2" shape-rendering="crispEdges" points="1330.49,564.24 1330.49,564.24 1330.48,564.237"/>
<polygon fill="#4a4f57" fill-opacity="0.2" shape-rendering="crispEdges" points="1330.49,564.24 1330.52,564.24 1330.51,564.236"/>
<polygon fill="#4a4f57" fill-opacity="0.2" shape-rendering="crispEdges" points="1330.49,564.24 1330.51,564.236 1330.48,564.237"/>
<polygon fill="#7b818c" fill-opacity="0.18" shape-rendering="crispEdges" points="1330.52,564.239 1330.49,439.599 1330.49,564.239"/>
<polygon fill="#7b818c" fill-opacity="0.18" shape-rendering="crispEdges" points="1330.52,564.239 1330.52,564.239 1330.52,386.451"/>
<polygon fill="#7b818c" fill-opacity="0.18" shape-rendering="crispEdges" points="1330.52,564.239 1330.52,386.451 1330.49,439.235"/>
<polygon fill="#7b818c" fill-opacity="0.18" shape-rendering="crispEdges" points="1330.49,439.235 1330.52,386.451 1330.49,386.451"/>
<polygon fill="#7b818c" fill-opacity="0.18" shape-rendering="crispEdges" points="1330.49,564.259 1330.52,564.268 1330.49,564.259"/>
<polygon fill="#7b818c" fill-opacity="0.18" shape-rendering="crispEdges" points="1330.49,564.269 1330.52,564.268 1330.49,564.259"/>
<polygon fill="#4a4f57" fill-opacity="0.2" shape-rendering="crispEdges" points="1330.49,564.24 1334.93,565.8 1334.96,565.799"/>
<polygon fill="#4a4f57" fill-opacity="0.2" shape-rendering="crispEdges" points="1330.49,564.24 1334.96,565.799 1330.49,564.24"/>
<polygon fill="#4a4f57" fill-opacity="0.2" shape-rendering="crispEdges" points="1330.49,564.24 1334.96,565.799 1330.52,564.24"/>
<polygon fill="#4a4f57" fill-opacity="0.2" shape-rendering="crispEdges" points="1334.93,565.8 1334.96,565.799 1334.93,565.8"/>
<polygon fill="#26282c" fill-opacity="0.3" shape-rendering="crispEdges" points="1330.48,386.449 1330.48,564.267 1413.97,415.912"/>
<polygon fill="#26282c" fill-opacity="0.3" shape-rendering="crispEdges" points="1330.48,386.449 1413.97,415.912 1348.19,392.673"/>
<polygon fill="#7b818c" fill-opacity="0.18" shape-rendering="crispEdges" points="1330.49,564.259 1330.49,439.599 1330.48,386.452"/>
<polygon fill="#7b818c" fill-opacity="0.18" shape-rendering="crispEdges" points="1330.49,439.235 1330.49,386.451 1330.48,386.452"/>
<polygon fill="#26282c" fill-opacity="0.3" shape-rendering="crispEdges" points="1414.04,415.936 1413.97,415.913 1330.48,564.267"/>
<polygon fill="#26282c" fill-opacity="0.3" shape-rendering="crispEdges" points="1330.48,564.267 1414.04,593.086 1414.04,415.936"/>
<polygon fill="#7b818c" fill-opacity="0.18" shape-rendering="crispEdges" points="1330.42,564.246 839.967,575.173 839.967,575.202"/>
<polygon fill="#7b818c" fill-opacity="0.18" shape-rendering="crispEdges" points="1330.42,564.246 839.967,575.202 1330.49,564.269"/>
<polygon fill="#4a4f57" fill-opacity="0.2" shape-rendering="crispEdges" points="840.135,575.232 841.135,575.209 839.964,575.172"/>
<polygon fill="#4a4f57" fill-opacity="0.2" shape-rendering="crispEdges" points="839.964,575.172 841.135,575.209 841.158,575.209"/>
<polygon fill="#4a4f57" fill-opacity="0.2" shape-rendering="crispEdges" points="839.964,575.172 841.158,575.209 839.96,575.17"/>
<polygon fill="#4a4f57" fill-opacity="0.2" shape-rendering="crispEdges" points="858.714,574.815 839.96,575.17 841.158,575.209"/>
<polygon fill="#4a4f57" fill-opacity="0.2" shape-rendering="crispEdges" points="839.96,575.17 1330.49,564.239 1330.48,564.237"/>
<polygon fill="#4a4f57" fill-opacity="0.2" shape-rendering="crispEdges" points="1330.48,564.237 839.96,575.17 839.96,575.17"/>
<polygon fill="#4a4f57" fill-opacity="0.2" shape-rendering="crispEdges" points="1330.48,564.237 839.96,575.17 1330.48,564.237"/>
<polygon fill="#4a4f57" fill-opacity="0.2" shape-rendering="crispEdges" points="839.96,575.17 858.715,574.815 1330.49,564.239"/>
<polygon fill="#7b818c" fill-opacity="0.18" shape-rendering="crispEdges" points="1330.42,564.246 839.97,397.395 839.967,575.173"/>
<polygon fill="#7b818c" fill-opacity="0.18" shape-rendering="crispEdges" points="1330.49,564.269 1330.49,564.259 839.97,397.395"/>
<polygon fill="#7b818c" fill-opacity="0.18" shape-rendering="crispEdges" points="1330.49,564.259 840.058,397.395 839.971,397.395"/>
<polygon fill="#7b818c" fill-opacity="0.18" shape-rendering="crispEdges" points="840.057,397.395 1330.49,564.259 1330.48,397.395"/>
<polygon fill="#4a4f57" fill-opacity="0.2" shape-rendering="crispEdges" points="840.135,575.232 844.403,576.732 870.485,576.152"/>
<polygon fill="#4a4f57" fill-opacity="0.2" shape-rendering="crispEdges" points="840.135,575.232 870.485,576.152 841.135,575.209"/>
<polygon fill="#4a4f57" fill-opacity="0.2" shape-rendering="crispEdges" points="858.715,574.815 1334.93,565.8 1330.49,564.239"/>
<polygon fill="#4a4f57" fill-opacity="0.2" shape-rendering="crispEdges" points="841.135,575.209 870.458,576.151 841.158,575.209"/>
<polygon fill="#4a4f57" fill-opacity="0.2" shape-rendering="crispEdges" points="870.458,576.151 1334.93,565.8 1334.93,565.8"/>
<polygon fill="#4a4f57" fill-opacity="0.2" shape-rendering="crispEdges" points="1334.93,565.8 858.714,574.815 841.158,575.209"/>
<polygon fill="#4a4f57" fill-opacity="0.2" shape-rendering="crispEdges" points="1334.93,565.8 841.158,575.209 870.458,576.151"/>
<polygon fill="#0a1638" fill-opacity="0.65" shape-rendering="crispEdges" points="970.959,472.721 970.959,532.004 966.886,497.08"/>
<polygon fill="#0a1638" fill-opacity="0.65" shape-rendering="crispEdges" points="970.959,532.004 966.886,511.901 966.886,497.08"/>
<polygon fill="#233d60" fill-opacity="0.65" shape-rendering="crispEdges" points="983.86,464.344 983.86,538.447 971.248,472.715"/>
<polygon fill="#233d60" fill-opacity="0.65" shape-rendering="crispEdges" points="983.86,538.447 971.248,531.997 971.248,472.715"/>
<polygon fill="#4c83d0" fill-opacity="0.65" shape-rendering="crispEdges" points="1002.02,544.833 983.86,538.447 1002.02,470.73"/>
<polygon fill="#4c83d0" fill-opacity="0.65" shape-rendering="crispEdges" points="983.86,538.447 983.86,464.344 1002.02,470.73"/>
<polygon fill="#233d60" fill-opacity="0.65" shape-rendering="crispEdges" points="983.86,538.447 1002.02,544.833 971.248,531.997"/>
<polygon fill="#233d60" fill-opacity="0.65" shape-rendering="crispEdges" points="1002.02,544.833 985.78,537.106 971.248,531.997"/>
<polygon fill="#365c92" fill-opacity="0.65" shape-rendering="crispEdges" points="1002.02,470.73 983.86,464.344 985.78,477.824"/>
<polygon fill="#365c92" fill-opacity="0.65" shape-rendering="crispEdges" points="983.86,464.344 971.248,472.715 985.78,477.824"/>
<polygon fill="#365c92" fill-opacity="0.65" shape-rendering="crispEdges" points="1002.02,544.833 1002.02,470.73 985.78,537.106"/>
<polygon fill="#365c92" fill-opacity="0.65" shape-rendering="crispEdges" points="1002.02,470.73 985.78,477.824 985.78,537.106"/>
<polygon fill="#4c83d0" fill-opacity="0.65" shape-rendering="crispEdges" points="985.78,477.824 985.78,537.106 971.248,472.715"/>
<polygon fill="#4c83d0" fill-opacity="0.65" shape-rendering="crispEdges" points="985.78,537.106 971.248,531.997 971.248,472.715"/>
<polygon fill="#233d60" fill-opacity="0.65" shape-rendering="crispEdges" points="985.78,537.106 985.78,477.824 971.248,531.997"/>
<polygon fill="#233d60" fill-opacity="0.65" shape-rendering="crispEdges" points="985.78,477.824 971.248,472.715 971.248,531.997"/>
<polygon fill="#233d60" fill-opacity="0.65" shape-rendering="crispEdges" points="970.959,532.004 970.959,472.721 971.248,531.997"/>
<polygon fill="#233d60" fill-opacity="0.65" shape-rendering="crispEdges" points="970.959,472.721 971.248,472.715 971.248,531.997"/>
<polygon fill="#233d60" fill-opacity="0.65" shape-rendering="crispEdges" points="985.78,537.106 985.491,537.113 971.248,531.997"/>
<polygon fill="#233d60" fill-opacity="0.65" shape-rendering="crispEdges" points="985.491,537.113 970.959,532.004 971.248,531.997"/>
<polygon fill="#4c83d0" fill-opacity="0.65" shape-rendering="crispEdges" points="985.491,537.113 985.78,537.106 985.491,477.83"/>
<polygon fill="#4c83d0" fill-opacity="0.65" shape-rendering="crispEdges" points="985.78,537.106 985.78,477.824 985.491,477.83"/>
<polygon fill="#4c83d0" fill-opacity="0.65" shape-rendering="crispEdges" points="985.491,477.83 985.78,477.824 970.959,472.721"/>
<polygon fill="#4c83d0" fill-opacity="0.65" shape-rendering="crispEdges" points="985.78,477.824 971.248,472.715 970.959,472.721"/>
<polygon fill="#153078" fill-opacity="0.65" shape-rendering="crispEdges" points="985.491,537.113 970.959,532.004 985.491,477.83"/>
<polygon fill="#153078" fill-opacity="0.65" shape-rendering="crispEdges" points="970.959,532.004 970.959,472.721 985.491,477.83"/>
<polygon fill="#233d60" fill-opacity="0.65" shape-rendering="crispEdges" points="985.491,537.113 985.491,477.83 970.959,532.004"/>
<polygon fill="#233d60" fill-opacity="0.65" shape-rendering="crispEdges" points="985.491,477.83 970.959,472.721 970.959,532.004"/>
<polygon fill="#0a1638" fill-opacity="0.65" shape-rendering="crispEdges" points="970.959,532.004 985.491,537.113 966.886,511.901"/>
<polygon fill="#0a1638" fill-opacity="0.65" shape-rendering="crispEdges" points="985.491,537.113 970.519,513.178 966.886,511.901"/>
<polygon fill="#0a1638" fill-opacity="0.65" shape-rendering="crispEdges" points="985.491,477.83 970.959,472.721 970.519,498.357"/>
<polygon fill="#0a1638" fill-opacity="0.65" shape-rendering="crispEdges" points="970.959,472.721 966.886,497.08 970.519,498.357"/>
<polygon fill="#0a1638" fill-opacity="0.65" shape-rendering="crispEdges" points="985.491,537.113 985.491,477.83 970.519,513.178"/>
<polygon fill="#0a1638" fill-opacity="0.65" shape-rendering="crispEdges" points="985.491,477.83 970.519,498.357 970.519,513.178"/>
<polygon fill="#0a1638" fill-opacity="0.65" shape-rendering="crispEdges" points="970.519,513.178 970.519,498.357 966.886,511.901"/>
<polygon fill="#0a1638" fill-opacity="0.65" shape-rendering="crispEdges" points="970.519,498.357 966.886,497.08 966.886,511.901"/>
<polygon fill="#006600" fill-opacity="0.35" shape-rendering="crispEdges" points="920.485,503.466 920.485,496.056 927.699,503.305"/>
<polygon fill="#006600" fill-opacity="0.35" shape-rendering="crispEdges" points="920.485,496.056 927.699,495.895 927.699,503.305"/>
<polygon fill="#00db00" fill-opacity="0.35" shape-rendering="crispEdges" points="929.515,496.534 929.515,503.944 927.699,495.895"/>
<polygon fill="#00db00" fill-opacity="0.35" shape-rendering="crispEdges" points="929.515,503.944 927.699,503.305 927.699,495.895"/>
<polygon fill="#006600" fill-opacity="0.35" shape-rendering="crispEdges" points="929.515,503.944 922.301,504.105 927.699,503.305"/>
<polygon fill="#006600" fill-opacity="0.35" shape-rendering="crispEdges" points="922.301,504.105 920.485,503.466 927.699,503.305"/>
<polygon fill="#00db00" fill-opacity="0.35" shape-rendering="crispEdges" points="922.301,504.105 929.515,503.944 922.301,496.695"/>
<polygon fill="#00db00" fill-opacity="0.35" shape-rendering="crispEdges" points="929.515,503.944 929.515,496.534 922.301,496.695"/>
<polygon fill="#00db00" fill-opacity="0.35" shape-rendering="crispEdges" points="922.301,496.695 929.515,496.534 920.485,496.056"/>
<polygon fill="#00db00" fill-opacity="0.35" shape-rendering="crispEdges" points="929.515,496.534 927.699,495.895 920.485,496.056"/>
<polygon fill="#006600" fill-opacity="0.35" shape-rendering="crispEdges" points="922.301,504.105 922.301,496.695 920.485,503.466"/>
<polygon fill="#006600" fill-opacity="0.35" shape-rendering="crispEdges" points="922.301,496.695 920.485,496.056 920.485,503.466"/>
<polygon fill="#003366" fill-opacity="0.2" shape-rendering="crispEdges" points="1383.89,580.306 1383.89,547.997 1389.66,580.178"/>
<polygon fill="#003366" fill-opacity="0.2" shape-rendering="crispEdges" points="1383.89,547.997 1389.66,547.869 1389.66,580.178"/>
<polygon fill="#510014" fill-opacity="0.2" shape-rendering="crispEdges" points="1374.36,580.518 1374.36,548.209 1383.89,580.306"/>
<polygon fill="#510014" fill-opacity="0.2" shape-rendering="crispEdges" points="1374.36,548.209 1383.89,547.997 1383.89,580.306"/>
<polygon fill="#006ddb" fill-opacity="0.2" shape-rendering="crispEdges" points="1397.94,550.781 1397.94,583.09 1389.66,547.869"/>
<polygon fill="#006ddb" fill-opacity="0.2" shape-rendering="crispEdges" points="1397.94,583.09 1389.66,580.178 1389.66,547.869"/>
<polygon fill="#003366" fill-opacity="0.2" shape-rendering="crispEdges" points="1397.94,583.09 1392.17,583.218 1389.66,580.178"/>
<polygon fill="#003366" fill-opacity="0.2" shape-rendering="crispEdges" points="1392.17,583.218 1383.89,580.306 1389.66,580.178"/>
<polygon fill="#006ddb" fill-opacity="0.2" shape-rendering="crispEdges" points="1392.17,583.218 1397.94,583.09 1392.17,550.909"/>
<polygon fill="#006ddb" fill-opacity="0.2" shape-rendering="crispEdges" points="1397.94,583.09 1397.94,550.781 1392.17,550.909"/>
<polygon fill="#006ddb" fill-opacity="0.2" shape-rendering="crispEdges" points="1392.17,550.909 1397.94,550.781 1383.89,547.997"/>
<polygon fill="#006ddb" fill-opacity="0.2" shape-rendering="crispEdges" points="1397.94,550.781 1389.66,547.869 1383.89,547.997"/>
<polygon fill="#003366" fill-opacity="0.2" shape-rendering="crispEdges" points="1392.17,583.218 1392.17,550.909 1383.89,580.306"/>
<polygon fill="#003366" fill-opacity="0.2" shape-rendering="crispEdges" points="1392.17,550.909 1383.89,547.997 1383.89,580.306"/>
<polygon fill="#af002b" fill-opacity="0.2" shape-rendering="crispEdges" points="1392.17,550.909 1392.17,583.218 1383.89,547.997"/>
<polygon fill="#af002b" fill-opacity="0.2" shape-rendering="crispEdges" points="1392.17,583.218 1383.89,580.306 1383.89,547.997"/>
<polygon fill="#510014" fill-opacity="0.2" shape-rendering="crispEdges" points="1392.17,583.218 1382.65,583.431 1383.89,580.306"/>
<polygon fill="#510014" fill-opacity="0.2" shape-rendering="crispEdges" points="1382.65,583.431 1374.36,580.518 1383.89,580.306"/>
<polygon fill="#af002b" fill-opacity="0.2" shape-rendering="crispEdges" points="1382.65,583.431 1392.17,583.218 1382.65,551.122"/>
<polygon fill="#af002b" fill-opacity="0.2" shape-rendering="crispEdges" points="1392.17,583.218 1392.17,550.909 1382.65,551.122"/>
<polygon fill="#af002b" fill-opacity="0.2" shape-rendering="crispEdges" points="1382.65,551.122 1392.17,550.909 1374.36,548.209"/>
<polygon fill="#af002b" fill-opacity="0.2" shape-rendering="crispEdges" points="1392.17,550.909 1383.89,547.997 1374.36,548.209"/>
<polygon fill="#510014" fill-opacity="0.2" shape-rendering="crispEdges" points="1382.65,583.431 1382.65,551.122 1374.36,580.518"/>
<polygon fill="#510014" fill-opacity="0.2" shape-rendering="crispEdges" points="1382.65,551.122 1374.36,548.209 1374.36,580.518"/>
<polygon fill="#7b818c" fill-opacity="0.18" shape-rendering="crispEdges" points="839.971,397.395 1330.49,564.259 1330.49,564.259"/>
<polygon fill="#7b818c" fill-opacity="0.18" shape-rendering="crispEdges" points="840.023,397.383 1330.48,397.395 1330.48,386.452"/>
<polygon fill="#7b818c" fill-opacity="0.18" shape-rendering="crispEdges" points="840.023,397.383 840.057,397.395 1330.48,397.395"/>
<polygon fill="#7b818c" fill-opacity="0.18" shape-rendering="crispEdges" points="840.023,397.383 839.97,397.384 839.971,397.395"/>
<polygon fill="#7b818c" fill-opacity="0.18" shape-rendering="crispEdges" points="840.058,397.395 840.023,397.383 839.971,397.395"/>
<polygon fill="#a2a9b4" fill-opacity="0.1" shape-rendering="crispEdges" points="839.977,397.387 923.398,603.711 923.261,603.929"/>
<polygon fill="#a2a9b4" fill-opacity="0.1" shape-rendering="crispEdges" points="923.522,426.869 923.522,603.514 923.398,603.712"/>
<polygon fill="#a2a9b4" fill-opacity="0.1" shape-rendering="crispEdges" points="923.522,426.869 923.398,603.712 839.977,397.387"/>
<polygon fill="#a2a9b4" fill-opacity="0.1" shape-rendering="crispEdges" points="839.963,397.382 839.977,397.387 923.261,603.929"/>
<polygon fill="#a2a9b4" fill-opacity="0.1" shape-rendering="crispEdges" points="839.963,397.382 923.261,603.929 839.963,575.2"/>
<polygon fill="#4a4f57" fill-opacity="0.2" shape-rendering="crispEdges" points="839.934,575.171 839.942,575.173 839.967,575.173"/>
<polygon fill="#4a4f57" fill-opacity="0.2" shape-rendering="crispEdges" points="839.934,575.171 839.967,575.173 839.964,575.172"/>
<polygon fill="#4a4f57" fill-opacity="0.2" shape-rendering="crispEdges" points="839.967,575.173 839.967,575.173 839.964,575.172"/>
<polygon fill="#4a4f57" fill-opacity="0.2" shape-rendering="crispEdges" points="839.96,575.17 839.934,575.171 839.96,575.17"/>
<polygon fill="#4a4f57" fill-opacity="0.2" shape-rendering="crispEdges" points="839.96,575.17 839.934,575.171 839.964,575.172"/>
<polygon fill="#7b818c" fill-opacity="0.18" shape-rendering="crispEdges" points="839.97,397.395 839.942,451.98 839.942,575.203"/>
<polygon fill="#7b818c" fill-opacity="0.18" shape-rendering="crispEdges" points="839.942,575.203 839.967,575.202 839.97,397.395"/>
<polygon fill="#4a4f57" fill-opacity="0.2" shape-rendering="crispEdges" points="839.942,575.173 844.377,576.732 839.967,575.173"/>
<polygon fill="#4a4f57" fill-opacity="0.2" shape-rendering="crispEdges" points="839.967,575.173 844.377,576.732 844.403,576.732"/>
<polygon fill="#4a4f57" fill-opacity="0.2" shape-rendering="crispEdges" points="839.967,575.173 844.403,576.732 839.967,575.173"/>
<polygon fill="#a2a9b4" fill-opacity="0.1" shape-rendering="crispEdges" points="839.977,397.387 857.654,403.601 923.522,426.869"/>
<polygon fill="#7b818c" fill-opacity="0.18" shape-rendering="crispEdges" points="839.97,397.395 839.942,397.385 839.942,451.98"/>
<polygon fill="#7b818c" fill-opacity="0.18" shape-rendering="crispEdges" points="839.97,397.384 839.942,397.385 839.971,397.395"/>
<polygon fill="#a2a9b4" fill-opacity="0.1" shape-rendering="crispEdges" points="923.261,603.929 839.977,397.387 839.977,397.387"/>
<polygon fill="#a2a9b4" fill-opacity="0.1" shape-rendering="crispEdges" points="923.398,603.711 923.522,604.019 923.261,603.929"/>
<polygon fill="#a2a9b4" fill-opacity="0.1" shape-rendering="crispEdges" points="923.522,603.514 923.522,604.019 923.398,603.712"/>
<polygon fill="#55575b" fill-opacity="0.2" shape-rendering="crispEdges" points="1244.2,394.996 1330.51,386.448 1348.23,392.676"/>
<polygon fill="#55575b" fill-opacity="0.2" shape-rendering="crispEdges" points="857.655,403.612 839.934,397.382 1330.51,386.448"/>
<polygon fill="#55575b" fill-opacity="0.2" shape-rendering="crispEdges" points="857.655,403.612 1330.51,386.448 1244.21,394.995"/>
<polygon fill="#7b818c" fill-opacity="0.18" shape-rendering="crispEdges" points="1330.52,386.421 1330.49,386.422 1330.49,386.451"/>
<polygon fill="#7b818c" fill-opacity="0.18" shape-rendering="crispEdges" points="1330.52,386.421 1330.49,386.451 1330.52,386.451"/>
<polygon fill="#7b818c" fill-opacity="0.18" shape-rendering="crispEdges" points="1330.49,386.451 1330.49,386.451 1330.52,386.451"/>
<polygon fill="#26282c" fill-opacity="0.3" shape-rendering="crispEdges" points="1330.48,386.449 1348.19,392.673 1330.48,386.419"/>
<polygon fill="#7b818c" fill-opacity="0.18" shape-rendering="crispEdges" points="1330.49,386.451 840.023,397.383 1330.49,386.451"/>
<polygon fill="#7b818c" fill-opacity="0.18" shape-rendering="crispEdges" points="839.97,397.365 839.971,397.384 840.023,397.383"/>
<polygon fill="#7b818c" fill-opacity="0.18" shape-rendering="crispEdges" points="839.97,397.355 839.97,397.365 840.023,397.383"/>
<polygon fill="#7b818c" fill-opacity="0.18" shape-rendering="crispEdges" points="839.97,397.355 1330.49,386.451 1330.49,386.422"/>
<polygon fill="#7b818c" fill-opacity="0.18" shape-rendering="crispEdges" points="839.97,397.355 839.97,397.355 1330.49,386.451"/>
<polygon fill="#7b818c" fill-opacity="0.18" shape-rendering="crispEdges" points="839.97,397.355 840.023,397.383 1330.49,386.451"/>
<polygon fill="#a2a9b4" fill-opacity="0.1" shape-rendering="crispEdges" points="839.977,397.387 839.963,397.352 857.654,403.601"/>
<polygon fill="#a2a9b4" fill-opacity="0.1" shape-rendering="crispEdges" points="839.977,397.387 839.963,397.352 839.977,397.387"/>
<polygon fill="#a2a9b4" fill-opacity="0.1" shape-rendering="crispEdges" points="839.963,397.382 839.963,397.352 839.977,397.387"/>
<polygon fill="#7b818c" fill-opacity="0.18" shape-rendering="crispEdges" points="839.97,397.365 839.942,397.355 839.942,397.385"/>
<polygon fill="#7b818c" fill-opacity="0.18" shape-rendering="crispEdges" points="839.97,397.365 839.942,397.385 839.971,397.384"/>
<polygon fill="#7b818c" fill-opacity="0.18" shape-rendering="crispEdges" points="839.97,397.355 839.942,397.355 839.97,397.355"/>
<polygon fill="#7b818c" fill-opacity="0.18" shape-rendering="crispEdges" points="839.97,397.355 839.942,397.355 839.97,397.365"/>
<polygon fill="#7b818c" fill-opacity="0.18" shape-rendering="crispEdges" points="839.942,397.355 1330.52,386.421 839.934,397.353"/>
<polygon fill="#7b818c" fill-opacity="0.18" shape-rendering="crispEdges" points="1330.52,386.421 1330.51,386.418 839.934,397.353"/>
<polygon fill="#26282c" fill-opacity="0.3" shape-rendering="crispEdges" points="1348.33,392.723 1333.58,387.508 1330.48,386.419"/>
<polygon fill="#55575b" fill-opacity="0.2" shape-rendering="crispEdges" points="1348.19,392.677 1348.23,392.676 1348.19,392.679"/>
<polygon fill="#26282c" fill-opacity="0.3" shape-rendering="crispEdges" points="1413.97,415.912 1414.03,415.82 1348.33,392.723"/>
<polygon fill="#55575b" fill-opacity="0.2" shape-rendering="crispEdges" points="1348.19,392.679 1348.23,392.676 1414.07,415.825"/>
<polygon fill="#55575b" fill-opacity="0.2" shape-rendering="crispEdges" points="1348.19,392.679 1414.07,415.825 1414.04,415.825"/>
<polygon fill="#26282c" fill-opacity="0.3" shape-rendering="crispEdges" points="1414.03,415.82 1414.04,415.796 1348.33,392.723"/>
<polygon fill="#26282c" fill-opacity="0.3" shape-rendering="crispEdges" points="1348.33,392.723 1414.04,415.796 1333.58,387.508"/>
<polygon fill="#26282c" fill-opacity="0.3" shape-rendering="crispEdges" points="1414.04,415.936 1414.04,415.796 1413.97,415.913"/>
<polygon fill="#a2a9b4" fill-opacity="0.1" shape-rendering="crispEdges" points="857.114,403.41 839.963,397.352 842.851,398.367"/>
<polygon fill="#55575b" fill-opacity="0.2" shape-rendering="crispEdges" points="1244.2,394.996 1348.19,392.677 1348.19,392.679"/>
<polygon fill="#a2a9b4" fill-opacity="0.1" shape-rendering="crispEdges" points="923.522,426.758 923.522,426.869 857.114,403.41"/>
<polygon fill="#55575b" fill-opacity="0.2" shape-rendering="crispEdges" points="1244.2,394.996 1348.19,392.679 923.493,426.759"/>
<polygon fill="#55575b" fill-opacity="0.2" shape-rendering="crispEdges" points="1348.19,392.679 1414.04,415.825 923.493,426.759"/>
<polygon fill="#55575b" fill-opacity="0.2" shape-rendering="crispEdges" points="857.655,403.612 1244.21,394.995 923.493,426.759"/>
<polygon fill="#a2a9b4" fill-opacity="0.1" shape-rendering="crispEdges" points="857.114,403.41 842.851,398.367 923.522,426.729"/>
<polygon fill="#a2a9b4" fill-opacity="0.1" shape-rendering="crispEdges" points="923.522,426.729 923.522,426.758 857.114,403.41"/>
<polygon fill="#b8bdc5" fill-opacity="0.2" shape-rendering="crispEdges" points="923.493,426.759 1414.07,415.825 923.493,426.729"/>
<polygon fill="#b8bdc5" fill-opacity="0.2" shape-rendering="crispEdges" points="1414.07,415.825 1414.07,415.795 923.493,426.729"/>
<polygon fill="#b8bdc5" fill-opacity="0.2" shape-rendering="crispEdges" points="923.493,426.729 1414.07,415.795 839.934,397.353"/>
<polygon fill="#b8bdc5" fill-opacity="0.2" shape-rendering="crispEdges" points="1414.07,415.795 1330.51,386.418 839.934,397.353"/>
<polygon fill="#a2a9b4" fill-opacity="0.1" shape-rendering="crispEdges" points="923.493,604.577 923.522,604.576 923.493,426.729"/>
<polygon fill="#a2a9b4" fill-opacity="0.1" shape-rendering="crispEdges" points="923.522,604.576 923.522,426.729 923.493,426.729"/>
<polygon fill="#a2a9b4" fill-opacity="0.1" shape-rendering="crispEdges" points="923.493,426.729 923.522,426.729 839.934,397.353"/>
<polygon fill="#a2a9b4" fill-opacity="0.1" shape-rendering="crispEdges" points="923.522,426.729 839.963,397.352 839.934,397.353"/>
<polygon fill="#4b4e53" fill-opacity="0.1" shape-rendering="crispEdges" points="923.493,604.577 923.493,426.729 839.934,575.2"/>
<polygon fill="#4b4e53" fill-opacity="0.1" shape-rendering="crispEdges" points="923.493,426.729 839.934,397.353 839.934,575.2"/>
<polygon fill="#393c41" fill-opacity="0.18" shape-rendering="crispEdges" points="839.942,575.203 839.942,397.355 839.934,575.2"/>
<polygon fill="#393c41" fill-opacity="0.18" shape-rendering="crispEdges" points="839.942,397.355 839.934,397.353 839.934,575.2"/>
<polygon fill="#55575b" fill-opacity="0.2" shape-rendering="crispEdges" points="923.493,426.759 923.493,426.729 839.934,397.382"/>
<polygon fill="#55575b" fill-opacity="0.2" shape-rendering="crispEdges" points="923.493,426.729 839.934,397.353 839.934,397.382"/>
<polygon fill="#222428" fill-opacity="0.2" shape-rendering="crispEdges" points="923.493,604.577 923.493,604.547 839.934,575.2"/>
<polygon fill="#222428" fill-opacity="0.2" shape-rendering="crispEdges" points="923.493,604.547 839.934,575.171 839.934,575.2"/>
<polygon fill="#535760" fill-opacity="0.3" shape-rendering="crispEdges" points="1414.04,593.643 1414.07,593.643 1414.04,415.796"/>
<polygon fill="#535760" fill-opacity="0.3" shape-rendering="crispEdges" points="1414.07,593.643 1414.07,415.795 1414.04,415.796"/>
<polygon fill="#535760" fill-opacity="0.3" shape-rendering="crispEdges" points="1414.04,415.796 1414.07,415.795 1330.48,386.419"/>
<polygon fill="#535760" fill-opacity="0.3" shape-rendering="crispEdges" points="1414.07,415.795 1330.51,386.418 1330.48,386.419"/>
</g>
</svg>
